<mxfile host="app.diagrams.net" agent="Mozilla/5.0 (Windows NT 10.0; Win64; x64) AppleWebKit/537.36 (KHTML, like Gecko) Chrome/135.0.0.0 Safari/537.36" version="26.2.12">
  <diagram name="Page-1" id="7dWCEi6EgN8kHKM5K8xp">
    <mxGraphModel dx="1044" dy="574" grid="1" gridSize="10" guides="1" tooltips="1" connect="1" arrows="1" fold="1" page="1" pageScale="1" pageWidth="1169" pageHeight="1654" math="0" shadow="0">
      <root>
        <mxCell id="0" />
        <mxCell id="1" parent="0" />
        <mxCell id="g2X9ftL1UHbqKtmVz29l-3" style="edgeStyle=orthogonalEdgeStyle;rounded=0;orthogonalLoop=1;jettySize=auto;html=1;exitX=1;exitY=0.5;exitDx=0;exitDy=0;endArrow=none;startFill=0;" edge="1" parent="1" source="g2X9ftL1UHbqKtmVz29l-1" target="g2X9ftL1UHbqKtmVz29l-2">
          <mxGeometry relative="1" as="geometry" />
        </mxCell>
        <mxCell id="g2X9ftL1UHbqKtmVz29l-1" value="&lt;font style=&quot;font-size: 25px;&quot;&gt;S&lt;/font&gt;" style="ellipse;whiteSpace=wrap;html=1;aspect=fixed;" vertex="1" parent="1">
          <mxGeometry x="140" y="280" width="80" height="80" as="geometry" />
        </mxCell>
        <mxCell id="g2X9ftL1UHbqKtmVz29l-9" style="rounded=0;orthogonalLoop=1;jettySize=auto;html=1;exitX=1;exitY=0;exitDx=0;exitDy=0;entryX=0;entryY=0.5;entryDx=0;entryDy=0;endArrow=none;startFill=0;" edge="1" parent="1" source="g2X9ftL1UHbqKtmVz29l-2" target="g2X9ftL1UHbqKtmVz29l-4">
          <mxGeometry relative="1" as="geometry" />
        </mxCell>
        <mxCell id="g2X9ftL1UHbqKtmVz29l-10" style="rounded=0;orthogonalLoop=1;jettySize=auto;html=1;exitX=1;exitY=0;exitDx=0;exitDy=0;entryX=0;entryY=0.5;entryDx=0;entryDy=0;endArrow=none;startFill=0;" edge="1" parent="1" source="g2X9ftL1UHbqKtmVz29l-2" target="g2X9ftL1UHbqKtmVz29l-5">
          <mxGeometry relative="1" as="geometry" />
        </mxCell>
        <mxCell id="g2X9ftL1UHbqKtmVz29l-11" style="rounded=0;orthogonalLoop=1;jettySize=auto;html=1;exitX=1;exitY=1;exitDx=0;exitDy=0;entryX=0;entryY=0.5;entryDx=0;entryDy=0;endArrow=none;startFill=0;" edge="1" parent="1" source="g2X9ftL1UHbqKtmVz29l-2" target="g2X9ftL1UHbqKtmVz29l-6">
          <mxGeometry relative="1" as="geometry" />
        </mxCell>
        <mxCell id="g2X9ftL1UHbqKtmVz29l-12" style="rounded=0;orthogonalLoop=1;jettySize=auto;html=1;exitX=1;exitY=1;exitDx=0;exitDy=0;entryX=0;entryY=0.5;entryDx=0;entryDy=0;endArrow=none;startFill=0;" edge="1" parent="1" source="g2X9ftL1UHbqKtmVz29l-2" target="g2X9ftL1UHbqKtmVz29l-7">
          <mxGeometry relative="1" as="geometry" />
        </mxCell>
        <mxCell id="g2X9ftL1UHbqKtmVz29l-2" value="&lt;font style=&quot;font-size: 25px;&quot;&gt;0&lt;/font&gt;" style="ellipse;whiteSpace=wrap;html=1;aspect=fixed;" vertex="1" parent="1">
          <mxGeometry x="310" y="280" width="80" height="80" as="geometry" />
        </mxCell>
        <mxCell id="g2X9ftL1UHbqKtmVz29l-4" value="1" style="ellipse;whiteSpace=wrap;html=1;aspect=fixed;fontSize=25;" vertex="1" parent="1">
          <mxGeometry x="520" y="30" width="80" height="80" as="geometry" />
        </mxCell>
        <mxCell id="g2X9ftL1UHbqKtmVz29l-5" value="2" style="ellipse;whiteSpace=wrap;html=1;aspect=fixed;fontSize=25;" vertex="1" parent="1">
          <mxGeometry x="520" y="140" width="80" height="80" as="geometry" />
        </mxCell>
        <mxCell id="g2X9ftL1UHbqKtmVz29l-6" value="n-1" style="ellipse;whiteSpace=wrap;html=1;aspect=fixed;fontSize=25;" vertex="1" parent="1">
          <mxGeometry x="520" y="400" width="80" height="80" as="geometry" />
        </mxCell>
        <mxCell id="g2X9ftL1UHbqKtmVz29l-7" value="n" style="ellipse;whiteSpace=wrap;html=1;aspect=fixed;fontSize=25;" vertex="1" parent="1">
          <mxGeometry x="520" y="490" width="80" height="80" as="geometry" />
        </mxCell>
        <mxCell id="g2X9ftL1UHbqKtmVz29l-8" value="" style="endArrow=none;dashed=1;html=1;dashPattern=1 3;strokeWidth=2;rounded=0;fontSize=25;" edge="1" parent="1">
          <mxGeometry width="50" height="50" relative="1" as="geometry">
            <mxPoint x="560" y="380" as="sourcePoint" />
            <mxPoint x="560" y="230" as="targetPoint" />
          </mxGeometry>
        </mxCell>
      </root>
    </mxGraphModel>
  </diagram>
</mxfile>
